<?xml version="1.0" encoding="utf-8"?>
<!-- Generator: Adobe Illustrator 25.0.1, SVG Export Plug-In . SVG Version: 6.00 Build 0)  -->
<svg version="1.1" id="Layer_1" xmlns="http://www.w3.org/2000/svg" xmlns:xlink="http://www.w3.org/1999/xlink" x="0px" y="0px"
	 viewBox="0 0 481 481" style="enable-background:new 0 0 481 481;" xml:space="preserve">
<style type="text/css">
	.st0{fill:none;stroke:#FFFFFF;stroke-width:25;stroke-miterlimit:10;}
	.st1{fill:#FFFFFF;}
</style>
<rect x="15.8" y="15.7" class="st0" width="449.5" height="449.5"/>
<g>
	<path class="st1" d="M194.5,98.4c7.1,0,13.6,1.1,19.7,3.4c6.1,2.3,11.4,5.6,15.8,10.1c4.5,4.5,7.9,10.1,10.4,16.9
		c2.5,6.8,3.8,14.7,3.8,23.8c0,8-1,15.4-3.1,22.1c-2,6.8-5.1,12.6-9.3,17.5s-9.3,8.8-15.5,11.6c-6.2,2.8-13.5,4.2-21.9,4.2h-47.3
		V98.4H194.5z M192.9,187.8c3.5,0,6.9-0.6,10.1-1.7c3.3-1.1,6.2-3,8.8-5.6c2.6-2.6,4.6-6,6.1-10.2c1.5-4.2,2.3-9.3,2.3-15.4
		c0-5.5-0.5-10.5-1.6-15c-1.1-4.5-2.8-8.3-5.3-11.4c-2.5-3.2-5.7-5.6-9.8-7.3c-4-1.7-9-2.5-15-2.5h-17.2v69.1H192.9z"/>
</g>
<g>
	<path class="st1" d="M212.4,379.6c-5.2,2.2-10.5,3.3-15.8,3.3c-8.4,0-16-1.5-22.7-4.4c-6.7-2.9-12.4-6.9-17-12.1
		c-4.6-5.1-8.1-11.1-10.6-18c-2.5-6.9-3.7-14.4-3.7-22.4c0-8.2,1.2-15.8,3.7-22.8c2.5-7,6-13.1,10.6-18.4s10.3-9.3,17-12.3
		c6.7-3,14.3-4.5,22.7-4.5c5.6,0,11.1,0.8,16.4,2.5c5.3,1.7,10,4.2,14.3,7.5c4.2,3.3,7.8,7.3,10.5,12.1c2.8,4.8,4.5,10.3,5.1,16.6
		h-23c-1.4-6.1-4.2-10.8-8.3-13.8c-4.1-3.1-9.1-4.6-14.9-4.6c-5.4,0-10,1.1-13.8,3.1c-3.8,2.1-6.9,4.9-9.2,8.4
		c-2.4,3.5-4.1,7.6-5.1,12.1c-1.1,4.5-1.6,9.2-1.6,14c0,4.6,0.5,9.1,1.6,13.4c1.1,4.4,2.8,8.3,5.1,11.8c2.4,3.5,5.4,6.3,9.2,8.4
		c3.8,2.1,8.4,3.1,13.8,3.1c8,0,14.2-2,18.5-6.1c4.4-4,6.9-9.9,7.6-17.6h-24.3v-18h46.1v59.3h-15.4l-2.5-12.4
		C222.4,373.6,217.6,377.4,212.4,379.6z"/>
</g>
<g>
	<path class="st1" d="M337.6,98.4v109.7h-24.1V98.4H337.6z"/>
</g>
<g>
	<path class="st1" d="M338.5,270.8v109.7h-24.1V270.8H338.5z"/>
</g>
</svg>
