<?xml version="1.0"?>
<svg xmlns="http://www.w3.org/2000/svg" xmlns:xlink="http://www.w3.org/1999/xlink" width="112.352" height="37.091" viewBox="0 0 112.352 37.091">
  <defs>
    <clipPath id="clip-path">
      <path id="Path_1319" data-name="Path 1319" d="M33.431,9.479l-.037-.037c-1.226-2.075-5.534-4.695-7.338-5.73S19.762.229,17.38.22h0c-2.378,0-6.867,2.452-8.69,3.5S2.522,7.451,1.329,9.5h0C.168,11.488,0,16.169,0,18.765s.172,7.151,1.273,9.189l.051.1c1.193,2.056,5.552,4.7,7.375,5.767S15,37.3,17.38,37.311h0c2.378,0,6.867-2.452,8.685-3.5,2.252-1.305,6.191-3.781,7.352-5.762h0c1.189-2.061,1.31-7.17,1.31-9.273S34.62,11.539,33.431,9.479Zm-.844,18.074c-.769,1.31-3.319,3.263-6.993,5.408s-6.709,3.366-8.205,3.366S12.839,35.068,9.2,32.97s-6.27-4.126-6.993-5.4v-.028l-.033-.056C1.4,26.127.984,22.961.979,18.765c0-4.27.429-7.459,1.179-8.778h0C2.9,8.7,5.524,6.672,9.151,4.565s6.7-3.347,8.186-3.361h.037c1.492,0,4.555,1.259,8.191,3.357s6.205,4.075,6.993,5.361l.042.065c.737,1.291,1.179,4.569,1.184,8.764s-.434,7.459-1.165,8.764a.1.1,0,0,0-.033.037Z" transform="translate(0 -0.22)" fill="none"></path>
    </clipPath>
  </defs>
  <g id="Digital_Agency_Network" data-name="Digital Agency Network" transform="translate(0 -0.22)">
    <path id="Path_1318" data-name="Path 1318" d="M33.713,11.113l-.042-.079c-.779-1.287-3.389-3.291-6.993-5.361S19.988,2.335,18.5,2.33h-.037c-1.492,0-4.545,1.273-8.168,3.366S4.03,9.831,3.3,11.118h0c-.779,1.315-1.2,4.517-1.2,8.774,0,4.2.424,7.347,1.152,8.7l.033.056v.028c.741,1.277,3.361,3.3,6.993,5.4s6.7,3.357,8.191,3.361,4.564-1.263,8.205-3.371,6.233-4.1,6.993-5.408a.1.1,0,0,1,0-.037c.8-1.277,1.231-4.541,1.231-8.737S34.449,12.4,33.713,11.113Z" transform="translate(-1.121 -1.126)"></path>
    <g id="Group_52938" data-name="Group 52938" transform="translate(0 0.22)" clip-path="url(#clip-path)">
      <image id="Rectangle_3211" data-name="Rectangle 3211" width="68.531" height="68.065" transform="translate(-17.016 -15.487)"></image>
    </g>
    <path id="Path_1320" data-name="Path 1320" d="M35.213,32.5H33.251a2,2,0,0,0-1.991,2V39.46h1.249V37.353h3.459V39.46H37.2V34.5a2,2,0,0,0-2-2Zm-2.7,2a.746.746,0,0,1,.741-.746h1.963a.732.732,0,0,1,.531.219.709.709,0,0,1,.224.527v1.613H32.509Z" transform="translate(-16.687 -17.231)" fill="#fff"></path>
    <path id="Path_1321" data-name="Path 1321" d="M14.323,32.55H10.5v6.993h3.823a2.732,2.732,0,0,0,2.732-2.732V35.277A2.737,2.737,0,0,0,14.323,32.55Zm-2.55,1.273h2.55a1.455,1.455,0,0,1,1.455,1.455V36.83a1.459,1.459,0,0,1-1.455,1.459h-2.55Z" transform="translate(-5.605 -17.258)" fill="#fff"></path>
    <path id="Path_1322" data-name="Path 1322" d="M57.269,32.6H56.085v4.471l-3.669-4.438-.028-.033H51.4v6.923h1.282V34.982l3.683,4.5.028.033h.974V32.6Z" transform="translate(-27.438 -17.285)" fill="#fff"></path>
    <path id="Path_1323" data-name="Path 1323" d="M89.19,24.13h2.392a3.548,3.548,0,0,1,1.152.186,2.746,2.746,0,0,1,.984.559,2.634,2.634,0,0,1,.685.932,3.2,3.2,0,0,1,.256,1.338,2.9,2.9,0,0,1-.294,1.347,2.867,2.867,0,0,1-.76.932,3.263,3.263,0,0,1-1.035.555,3.562,3.562,0,0,1-1.119.186H89.19Zm1.865,5.086a3.944,3.944,0,0,0,.932-.117,2.331,2.331,0,0,0,.844-.368,1.711,1.711,0,0,0,.527-.634,2.154,2.154,0,0,0,.191-.932,2.331,2.331,0,0,0-.172-.932,1.608,1.608,0,0,0-.466-.639,2.037,2.037,0,0,0-.718-.359,3.464,3.464,0,0,0-.909-.117H90.272V29.2Z" transform="translate(-47.61 -12.763)"></path>
    <path id="Path_1324" data-name="Path 1324" d="M103.07,24.13h1.077v6.061H103.07Z" transform="translate(-55.019 -12.763)"></path>
    <path id="Path_1325" data-name="Path 1325" d="M113.24,29.571a5.273,5.273,0,0,1-2.508.6,3.473,3.473,0,0,1-1.287-.228,2.858,2.858,0,0,1-1.674-1.636,3.3,3.3,0,0,1-.242-1.291,3.45,3.45,0,0,1,.242-1.324,2.932,2.932,0,0,1,.662-1.016,2.89,2.89,0,0,1,1.012-.643,3.473,3.473,0,0,1,1.287-.228,4.872,4.872,0,0,1,1.3.168,2.625,2.625,0,0,1,1.086.6l-.8.8a2.075,2.075,0,0,0-.7-.438,2.494,2.494,0,0,0-.876-.154,2.112,2.112,0,0,0-.853.168,1.977,1.977,0,0,0-.653.466,2.14,2.14,0,0,0-.424.69,2.3,2.3,0,0,0-.149.848,2.55,2.55,0,0,0,.149.9,2.126,2.126,0,0,0,.424.709,1.935,1.935,0,0,0,.653.466,2.112,2.112,0,0,0,.853.172,3.729,3.729,0,0,0,.774-.079,2.275,2.275,0,0,0,.648-.238V27.445h-1.245v-.974h2.331Z" transform="translate(-57.399 -12.587)"></path>
    <path id="Path_1326" data-name="Path 1326" d="M122.46,24.13h1.077v6.061H122.46Z" transform="translate(-65.37 -12.763)"></path>
    <path id="Path_1327" data-name="Path 1327" d="M128.145,25.1H126.28V24.13h4.792V25.1h-1.865v5.086h-1.077Z" transform="translate(-67.409 -12.763)"></path>
    <path id="Path_1328" data-name="Path 1328" d="M137.643,24.13h.932l2.611,6.061h-1.231l-.564-1.4h-2.629l-.55,1.4H135Zm1.371,3.73-.932-2.462-.932,2.462Z" transform="translate(-72.064 -12.763)"></path>
    <path id="Path_1329" data-name="Path 1329" d="M149.7,24.13h1.063V29.2h2.578v.974H149.69Z" transform="translate(-79.905 -12.763)"></path>
    <path id="Path_1330" data-name="Path 1330" d="M165.869,24.13h.932l2.611,6.061h-1.235l-.564-1.4h-2.625l-.55,1.4H163.23Zm1.371,3.73-.932-2.462-.932,2.462Z" transform="translate(-87.133 -12.763)"></path>
    <path id="Path_1331" data-name="Path 1331" d="M182.951,29.571a5.287,5.287,0,0,1-2.508.6,3.5,3.5,0,0,1-1.291-.228,2.923,2.923,0,0,1-1.007-.639,3.021,3.021,0,0,1-.667-1,3.389,3.389,0,0,1-.238-1.291,3.543,3.543,0,0,1,.238-1.324,3.011,3.011,0,0,1,.667-1.016,2.867,2.867,0,0,1,1.007-.643,3.5,3.5,0,0,1,1.291-.228,4.872,4.872,0,0,1,1.3.168,2.653,2.653,0,0,1,1.086.6l-.8.8a2.121,2.121,0,0,0-.7-.438,2.522,2.522,0,0,0-.881-.154,2.075,2.075,0,0,0-.848.168,2,2,0,0,0-.657.466,2.224,2.224,0,0,0-.424.69,2.4,2.4,0,0,0-.149.848,2.658,2.658,0,0,0,.149.9,2.205,2.205,0,0,0,.424.709,1.953,1.953,0,0,0,.657.466,2.075,2.075,0,0,0,.848.172,3.767,3.767,0,0,0,.779-.079,2.191,2.191,0,0,0,.643-.238V27.445h-1.24v-.974h2.331Z" transform="translate(-94.611 -12.587)"></path>
    <path id="Path_1332" data-name="Path 1332" d="M192.22,24.13h4.014V25.1H193.3V26.6h2.8v.974h-2.8V29.2h3.091v.974H192.22Z" transform="translate(-102.608 -12.763)"></path>
    <path id="Path_1333" data-name="Path 1333" d="M203.44,24.13h1.427l2.937,4.5h0v-4.5h1.077v6.061H207.51l-2.993-4.662h0v4.662H203.44Z" transform="translate(-108.597 -12.763)"></path>
    <path id="Path_1334" data-name="Path 1334" d="M221.843,25.375a1.613,1.613,0,0,0-1.273-.6,2.093,2.093,0,0,0-.853.168,1.977,1.977,0,0,0-.653.466,2.14,2.14,0,0,0-.424.69,2.3,2.3,0,0,0-.149.848,2.55,2.55,0,0,0,.149.9,2.126,2.126,0,0,0,.406.709,1.935,1.935,0,0,0,.653.466,2.1,2.1,0,0,0,.853.172,1.552,1.552,0,0,0,.713-.177,1.94,1.94,0,0,0,.648-.559l.89.634a2.485,2.485,0,0,1-1,.82,3.086,3.086,0,0,1-1.259.256,3.487,3.487,0,0,1-1.287-.228,2.946,2.946,0,0,1-1.012-.639,3.012,3.012,0,0,1-.662-1,3.389,3.389,0,0,1-.242-1.291,3.543,3.543,0,0,1,.242-1.324,3,3,0,0,1,.662-1.016,2.89,2.89,0,0,1,1.012-.643,3.487,3.487,0,0,1,1.287-.228,2.97,2.97,0,0,1,1.142.219,2.653,2.653,0,0,1,.979.741Z" transform="translate(-116.017 -12.587)"></path>
    <path id="Path_1335" data-name="Path 1335" d="M231.2,27.6,228.92,24.13h1.352l1.482,2.415,1.51-2.415h1.287L232.277,27.6v2.592H231.2Z" transform="translate(-122.198 -12.763)"></path>
    <path id="Path_1336" data-name="Path 1336" d="M89.19,43.12h1.431l2.937,4.5h0v-4.5H94.64v6.061H93.3l-3-4.662h0v4.662H89.19Z" transform="translate(-47.61 -22.9)"></path>
    <path id="Path_1337" data-name="Path 1337" d="M103.81,43.12h4.014v.974h-2.937v1.487h2.8v.979h-2.8v1.632h3.091v.974H103.81Z" transform="translate(-55.414 -22.9)"></path>
    <path id="Path_1338" data-name="Path 1338" d="M115.555,44.094H113.69V43.12H118.5v.974h-1.865v5.082h-1.077Z" transform="translate(-60.688 -22.9)"></path>
    <path id="Path_1339" data-name="Path 1339" d="M124.11,43.12h1.179l1.142,4.364h0l1.357-4.364h1.063l1.333,4.364h0l1.189-4.364h1.1l-1.762,6.061h-1.026l-1.4-4.611h0l-1.4,4.611h-.96Z" transform="translate(-66.25 -22.9)"></path>
    <path id="Path_1340" data-name="Path 1340" d="M142.87,46a3.449,3.449,0,0,1,.242-1.324,2.909,2.909,0,0,1,.662-1.012,2.965,2.965,0,0,1,1.021-.648,3.566,3.566,0,0,1,1.287-.224,3.436,3.436,0,0,1,1.3.21,2.82,2.82,0,0,1,1.016.634,2.932,2.932,0,0,1,.671,1.012,3.5,3.5,0,0,1,.238,1.319,3.389,3.389,0,0,1-.238,1.291,2.984,2.984,0,0,1-.671,1,3.067,3.067,0,0,1-1.016.653,3.529,3.529,0,0,1-1.3.242,3.566,3.566,0,0,1-1.287-.205,3.026,3.026,0,0,1-1.012-.643,2.9,2.9,0,0,1-.662-1A3.263,3.263,0,0,1,142.87,46Zm1.133-.07a2.55,2.55,0,0,0,.149.9,2.037,2.037,0,0,0,.424.709,1.935,1.935,0,0,0,.653.466,2.009,2.009,0,0,0,.853.172,2.037,2.037,0,0,0,.853-.172,1.926,1.926,0,0,0,.657-.452,2.112,2.112,0,0,0,.424-.709,2.657,2.657,0,0,0,.149-.9,2.377,2.377,0,0,0-.149-.844,2.117,2.117,0,0,0-.424-.69,1.9,1.9,0,0,0-.662-.466,2.112,2.112,0,0,0-.853-.168,2.079,2.079,0,0,0-.853.168,1.912,1.912,0,0,0-.653.466,2.042,2.042,0,0,0-.424.69A2.28,2.28,0,0,0,144,45.925Z" transform="translate(-76.264 -22.722)"></path>
    <path id="Path_1341" data-name="Path 1341" d="M158.86,43.12h2.107a4.2,4.2,0,0,1,.844.079,2.2,2.2,0,0,1,.723.28,1.473,1.473,0,0,1,.5.517,1.716,1.716,0,0,1,.191.848,1.688,1.688,0,0,1-.364,1.1,1.571,1.571,0,0,1-1.04.541l1.608,2.676h-1.3l-1.4-2.564h-.788v2.564h-1.082Zm1.921,2.564h.466a1.529,1.529,0,0,0,.424-.1.751.751,0,0,0,.312-.252.783.783,0,0,0,.117-.466.727.727,0,0,0-.112-.424.648.648,0,0,0-.289-.247,1.5,1.5,0,0,0-.4-.107h-1.357v1.641Z" transform="translate(-84.8 -22.9)"></path>
    <path id="Path_1342" data-name="Path 1342" d="M170.43,43.12h1.077v2.564h.051l2.508-2.564h1.455l-2.83,2.8,3.021,3.263H174.2L171.568,46.2h-.061v2.979H170.43Z" transform="translate(-90.976 -22.9)"></path>
  </g>
</svg>